<svg xmlns="http://www.w3.org/2000/svg" version="1.1" xmlns:xlink="http://www.w3.org/1999/xlink" xmlns:svgjs="http://svgjs.dev/svgjs" width="1500" height="2093" viewBox="0 0 1500 2093"><g transform="matrix(1,0,0,1,-1.6153951015585335,0.8473684210525789)"><svg viewBox="0 0 177 247" data-background-color="#ffffff" preserveAspectRatio="xMidYMid meet" height="2093" width="1500" xmlns="http://www.w3.org/2000/svg" xmlns:xlink="http://www.w3.org/1999/xlink"><g id="tight-bounds" transform="matrix(1,0,0,1,0.1906166219839065,-0.09999999999999432)"><svg viewBox="0 0 176.61876675603216 247.2" height="247.2" width="176.61876675603216"><g><svg viewBox="0 0 176.61876675603216 247.2" height="247.2" width="176.61876675603216"><g><svg viewBox="0 0 176.61876675603216 247.2" height="247.2" width="176.61876675603216"><g id="textblocktransform"><svg viewBox="0 0 176.61876675603216 247.2" height="247.2" width="176.61876675603216" id="textblock"><g><svg viewBox="0 0 176.61876675603216 247.2" height="247.2" width="176.61876675603216"><g transform="matrix(1,0,0,1,0,0)"><svg width="176.61876675603216" viewBox="0.95 -37.1 26.650000000000002 37.300000000000004" height="247.2" data-palette-color="#577dc2"><path d="M15-25.4L15-25.4Q14.3-22.7 13.28-19.8 12.25-16.9 11.15-14.3L11.15-14.3Q11.1-14.2 10.9-13.83 10.7-13.45 10.6-13.5L10.6-13.5Q10.45-13.5 10.48-13.93 10.5-14.35 10.55-14.5L10.55-14.5Q10.6-15.1 10.75-16 10.9-16.9 11.08-17.85 11.25-18.8 11.48-19.7 11.7-20.6 11.9-21.25L11.9-21.25Q12-21.45 12.2-22.25 12.4-23.05 12.63-24.18 12.85-25.3 13.1-26.65 13.35-28 13.55-29.3L13.55-29.3 12.95-29.45Q12.7-27.7 12.23-25.88 11.75-24.05 11.18-22.23 10.6-20.4 10.05-18.53 9.5-16.65 9.05-14.8L9.05-14.8Q8.65-13.05 8.45-11.15 8.25-9.25 8.3-7.33 8.35-5.4 8.75-3.58 9.15-1.75 9.95-0.2L9.95-0.2Q10.1 0.15 10.05 0.15L10.05 0.15Q9.95 0.15 9.9 0.1L9.9 0.1 9.8 0Q8.4-1.65 7.73-3.58 7.05-5.5 6.88-7.55 6.7-9.6 6.95-11.7 7.2-13.8 7.65-15.8L7.65-15.8Q8.5-19.5 9.65-22.93 10.8-26.35 11.6-29.65L11.6-29.65Q8.6-30.15 5.98-30.58 3.35-31 1.1-30.55L1.1-30.55Q0.95-30.55 0.95-30.6L0.95-30.6Q0.95-30.7 1.03-30.73 1.1-30.75 1.15-30.8L1.15-30.8Q2.85-31.8 4.78-31.9 6.7-32 8.78-31.73 10.85-31.45 13.03-31.03 15.2-30.6 17.4-30.55L17.4-30.55Q18.75-30.5 20.23-30.78 21.7-31.05 23.08-31.63 24.45-32.2 25.58-33.15 26.7-34.1 27.4-35.4L27.4-35.4Q27.5-35.65 27.6-35.65L27.6-35.65 27.6-35.5 27.6-35.4Q27.05-33.5 25.9-32.27 24.75-31.05 23.28-30.3 21.8-29.55 20.13-29.28 18.45-29 16.85-29.05L16.85-29.05Q17.1-27.5 16.88-25.45 16.65-23.4 16.2-21.3 15.75-19.2 15.25-17.32 14.75-15.45 14.45-14.3L14.45-14.3Q13.85-11.9 13.05-9.4 12.25-6.9 11.6-5L11.6-5Q11.5-4.75 11.38-4.55 11.25-4.35 11.15-4.4L11.15-4.4Q11.05-4.45 11.08-4.67 11.1-4.9 11.1-5.15L11.1-5.15Q11.25-8.9 12.2-12.65 13.15-16.4 14.25-20.2L14.25-20.2Q14.85-22.3 15.43-24.45 16-26.6 16.25-29.05L16.25-29.05Q16-29.1 15.83-29.1 15.65-29.1 15.4-29.1L15.4-29.1Q15.4-28.1 15.33-27.15 15.25-26.2 15-25.4ZM16.35-36.05L16.35-36.05Q18.3-35.8 20.3-35.65 22.3-35.5 23.75-35.5L23.75-35.5Q24.25-35.5 24.25-35.35L24.25-35.35Q24.25-35.15 23.75-35L23.75-35Q21.2-34 18.38-34.1 15.55-34.2 12.65-34.65L12.65-34.65Q10.9-34.9 9.05-35.15 7.2-35.4 5.05-35.15L5.05-35.15Q4.85-35.1 4.85-35.2L4.85-35.2Q4.85-35.3 4.95-35.35 5.05-35.4 5.15-35.5L5.15-35.5Q6.1-36.2 7.6-36.43 9.1-36.65 10.73-36.63 12.35-36.6 13.85-36.4 15.35-36.2 16.35-36.05ZM8.85-34.5L8.85-34.5Q10.95-34.2 13.13-33.75 15.3-33.3 17.35-32.75L17.35-32.75Q17.45-32.65 17.78-32.58 18.1-32.5 18.1-32.35L18.1-32.35Q18.1-32.25 17.8-32.2 17.5-32.15 17.35-32.05L17.35-32.05Q16.9-31.95 16.23-31.95 15.55-31.95 14.83-31.98 14.1-32 13.4-32.05 12.7-32.1 12.2-32.2L12.2-32.2Q11.85-32.25 10.48-32.4 9.1-32.55 7.45-32.6 5.8-32.65 4.28-32.58 2.75-32.5 2.1-32.15L2.1-32.15Q1.9-32.05 1.85-32.05L1.85-32.05 1.8-32.05Q1.8-32.25 2-32.45L2-32.45Q2.5-33.1 3.38-33.55 4.25-34 5.2-34.25 6.15-34.5 7.13-34.55 8.1-34.6 8.85-34.5ZM10.5-3.55L10.5-3.55Q10.65-2.7 10.88-1.85 11.1-1 11.45-0.2L11.45-0.2Q11.65 0.2 11.5 0.2L11.5 0.2Q11.4 0.2 11.2 0.1L11.2 0.1Q11.1 0.05 11.05-0.05L11.05-0.05Q10.4-0.8 10.03-1.45 9.65-2.1 9.4-3.55L9.4-3.55Q9.3-4.1 9.28-4.95 9.25-5.8 9.3-6.6 9.35-7.4 9.45-7.95 9.55-8.5 9.75-8.5L9.75-8.5Q9.8-8.5 9.88-8.25 9.95-8 10-7.68 10.05-7.35 10.1-7.03 10.15-6.7 10.15-6.6L10.15-6.6Q10.25-5.75 10.33-5 10.4-4.25 10.5-3.55ZM25-34.85L25-34.85Q26.1-35.8 26.85-36.9L26.85-36.9Q26.95-37.1 27.05-37.1L27.05-37.1Q27.1-37.1 27.1-36.75L27.1-36.75Q27.1-36.55 27.05-36.4L27.05-36.4Q26.85-35.55 26.6-35.05 26.35-34.55 25.4-33.85L25.4-33.85Q25.05-33.55 24.45-33.27 23.85-33 23.3-32.8 22.75-32.6 22.33-32.58 21.9-32.55 21.85-32.75L21.85-32.75Q21.85-32.8 22-32.93 22.15-33.05 22.38-33.2 22.6-33.35 22.8-33.48 23-33.6 23.1-33.65L23.1-33.65Q23.6-33.9 24.08-34.2 24.55-34.5 25-34.85Z" opacity="1" transform="matrix(1,0,0,1,0,0)" fill="#577dc2" class="wordmark-text-0" data-fill-palette-color="primary" id="text-0"></path></svg></g></svg></g></svg></g></svg></g><g></g></svg></g><defs></defs></svg><rect width="176.61876675603216" height="247.2" fill="none" stroke="none" visibility="hidden"></rect></g></svg></g></svg>